<?xml version="1.0" encoding="utf-8"?>
<!-- Generator: Adobe Illustrator 23.0.3, SVG Export Plug-In . SVG Version: 6.00 Build 0)  -->
<svg version="1.1" id="Layer_1" xmlns="http://www.w3.org/2000/svg" xmlns:xlink="http://www.w3.org/1999/xlink" x="0px" y="0px"
	 viewBox="0 0 100 100" style="enable-background:new 0 0 100 100;" xml:space="preserve">
<style type="text/css">
	.st0{fill:#022B3A;}
</style>
<g>
	<g>
		<g>
			<polygon class="st0" points="11.45,27.72 1.03,7.61 63.77,7.61 63.77,9.57 4.26,9.57 13.19,26.82 			"/>
		</g>
	</g>
	<g>
		<g>
			<polygon class="st0" points="48.81,93.31 17.07,38.38 18.77,37.4 48.85,89.46 58.52,73.55 60.2,74.57 			"/>
		</g>
	</g>
	<g>
		<g>
			<polygon class="st0" points="66.67,62.74 64.96,61.77 94.69,9.57 75.66,9.57 75.66,7.61 98.07,7.61 			"/>
		</g>
	</g>
	<g>
		<g>
			<rect x="29.68" y="13.43" class="st0" width="1.96" height="33.28"/>
		</g>
	</g>
	<g>
		<g>
			<path class="st0" d="M41.55,30.08"/>
		</g>
	</g>
	<g>
		<g>
			<rect x="41.17" y="13.43" class="st0" width="1.96" height="26.28"/>
		</g>
	</g>
	<g>
		<g>
			
				<rect x="26.28" y="35.98" transform="matrix(0.4902 -0.8716 0.8716 0.4902 -6.8824 62.1592)" class="st0" width="46.84" height="1.96"/>
		</g>
	</g>
	<g>
		<g>
			<polygon class="st0" points="52.47,69.78 46,53.52 47.82,52.79 52.82,65.36 68.94,38.46 70.62,39.47 			"/>
		</g>
	</g>
	<g>
		<g>
			<rect x="30.66" y="29.53" class="st0" width="11.49" height="1.96"/>
		</g>
	</g>
</g>
</svg>
