<?xml version="1.0" encoding="utf-8"?>
<!-- Generator: Adobe Illustrator 23.0.3, SVG Export Plug-In . SVG Version: 6.00 Build 0)  -->
<svg version="1.1" id="Layer_1" xmlns="http://www.w3.org/2000/svg" xmlns:xlink="http://www.w3.org/1999/xlink" x="0px" y="0px"
	 viewBox="0 0 100 100" style="enable-background:new 0 0 100 100;" xml:space="preserve">
<style type="text/css">
	.st0{fill:#C49EB7;}
</style>
<g>
	<g>
		<g>
			<polygon class="st0" points="12.35,27.54 1.9,7.37 64.82,7.37 64.82,9.34 5.14,9.34 14.1,26.63 			"/>
		</g>
	</g>
	<g>
		<g>
			<polygon class="st0" points="49.82,93.31 17.99,38.23 19.7,37.24 49.86,89.44 59.55,73.49 61.24,74.52 			"/>
		</g>
	</g>
	<g>
		<g>
			<polygon class="st0" points="67.72,62.65 66.01,61.68 95.83,9.34 76.74,9.34 76.74,7.37 99.21,7.37 			"/>
		</g>
	</g>
	<g>
		<g>
			<rect x="30.63" y="13.21" class="st0" width="1.97" height="33.38"/>
		</g>
	</g>
	<g>
		<g>
			<path class="st0" d="M42.53,29.9"/>
		</g>
	</g>
	<g>
		<g>
			<rect x="42.16" y="13.21" class="st0" width="1.97" height="26.36"/>
		</g>
	</g>
	<g>
		<g>
			
				<rect x="27.23" y="35.82" transform="matrix(0.4902 -0.8716 0.8716 0.4902 -6.2309 62.9597)" class="st0" width="46.97" height="1.97"/>
		</g>
	</g>
	<g>
		<g>
			<polygon class="st0" points="53.48,69.71 47,53.41 48.83,52.68 53.84,65.28 70,38.31 71.69,39.32 			"/>
		</g>
	</g>
	<g>
		<g>
			<rect x="31.62" y="29.35" class="st0" width="11.52" height="1.97"/>
		</g>
	</g>
</g>
</svg>
