<?xml version="1.0" encoding="utf-8"?>
<!-- Generator: Adobe Illustrator 23.0.3, SVG Export Plug-In . SVG Version: 6.00 Build 0)  -->
<svg version="1.1" id="Layer_1" xmlns="http://www.w3.org/2000/svg" xmlns:xlink="http://www.w3.org/1999/xlink" x="0px" y="0px"
	 viewBox="0 0 100 100" style="enable-background:new 0 0 100 100;" xml:space="preserve">
<style type="text/css">
	.st0{fill:none;}
</style>
<g>
	<path d="M64.42,8.82c-5.22,0.29-10.43,0.5-15.65,0.65c-5.22,0.15-10.43,0.23-15.65,0.29C27.91,9.8,22.69,9.84,17.48,9.8
		C12.26,9.79,7.05,9.72,1.83,9.62l0.7-1.16c1.59,3.22,3.15,6.46,4.7,9.7c1.5,3.27,3.07,6.5,4.51,9.79c-1.86-3.08-3.6-6.22-5.4-9.33
		c-1.76-3.13-3.5-6.27-5.21-9.43L0.51,8.06l1.32-0.03c5.22-0.1,10.43-0.18,15.65-0.19c5.22-0.04,10.43,0,15.65,0.04
		c5.22,0.06,10.43,0.15,15.65,0.29C53.99,8.32,59.21,8.53,64.42,8.82z"/>
	<path d="M17.48,38.82c2.89,4.42,5.71,8.88,8.48,13.37c2.76,4.49,5.48,9.01,8.16,13.55c2.67,4.55,5.34,9.09,7.94,13.68
		c2.63,4.57,5.2,9.17,7.74,13.79l-1.33-0.01c1.85-2.92,3.74-5.82,5.64-8.72c1.94-2.87,3.82-5.78,5.8-8.62
		c-1.61,3.07-3.32,6.08-4.98,9.12c-1.7,3.02-3.4,6.03-5.14,9.02l-0.65,1.11l-0.68-1.13c-2.73-4.51-5.44-9.03-8.09-13.59
		c-2.67-4.54-5.28-9.13-7.88-13.71c-2.59-4.59-5.15-9.2-7.66-13.84C22.32,48.2,19.86,43.53,17.48,38.82z"/>
	<path d="M66.51,63.77c2.35-4.72,4.78-9.41,7.26-14.06c2.48-4.65,5.01-9.27,7.57-13.88c2.58-4.6,5.15-9.19,7.79-13.75
		c2.62-4.57,5.29-9.11,7.99-13.64l0.68,1.17c-3.54-0.07-7.07-0.17-10.61-0.29c-3.54-0.17-7.07-0.26-10.61-0.49
		C80.13,8.6,83.67,8.5,87.2,8.33c3.54-0.12,7.07-0.22,10.61-0.29l1.33-0.03l-0.65,1.2c-2.51,4.63-5.06,9.25-7.66,13.83
		c-2.57,4.6-5.22,9.16-7.85,13.72c-2.66,4.55-5.34,9.09-8.08,13.59C72.16,54.86,69.37,59.33,66.51,63.77z"/>
	<path d="M30.52,13.78c0.41,2.84,0.63,5.68,0.78,8.52c0.16,2.84,0.2,5.68,0.22,8.52c-0.02,2.84-0.06,5.68-0.22,8.52
		c-0.15,2.84-0.36,5.68-0.78,8.52c-0.42-2.84-0.63-5.68-0.78-8.52c-0.16-2.84-0.2-5.68-0.22-8.52c0.02-2.84,0.06-5.68,0.22-8.52
		C29.89,19.46,30.11,16.62,30.52,13.78z"/>
	<path class="st0" d="M41.67,30.82"/>
	<path d="M42.28,13.78c0.41,2.24,0.63,4.49,0.78,6.73c0.16,2.24,0.2,4.49,0.22,6.73c-0.02,2.24-0.06,4.49-0.22,6.73
		c-0.15,2.24-0.36,4.49-0.78,6.73c-0.42-2.24-0.63-4.49-0.78-6.73c-0.16-2.24-0.2-4.49-0.22-6.73c0.02-2.24,0.06-4.49,0.22-6.73
		C41.65,18.27,41.87,16.03,42.28,13.78z"/>
	<path d="M61.76,16.97c-1.6,3.69-3.37,7.28-5.2,10.83c-1.82,3.56-3.74,7.07-5.68,10.56c-1.97,3.48-3.97,6.94-6.06,10.34
		c-2.09,3.41-4.23,6.79-6.55,10.07c1.59-3.69,3.36-7.28,5.19-10.83c1.82-3.56,3.74-7.07,5.68-10.56c1.98-3.47,3.97-6.94,6.07-10.34
		C57.29,23.63,59.44,20.25,61.76,16.97z"/>
	<path d="M48.31,54.45c1.23,2.36,2.37,4.76,3.47,7.17c1.11,2.41,2.18,4.83,3.22,7.27l-1.57-0.13c1.39-2.48,2.84-4.93,4.29-7.38
		c1.48-2.43,2.93-4.88,4.46-7.28c1.51-2.41,3.06-4.8,4.64-7.17c1.58-2.37,3.21-4.71,4.91-7.01c-1.22,2.59-2.51,5.13-3.86,7.64
		c-1.34,2.51-2.72,5.01-4.13,7.47c-1.39,2.48-2.86,4.92-4.31,7.37c-1.48,2.43-2.95,4.86-4.48,7.26l-0.97,1.51l-0.61-1.64
		c-0.92-2.48-1.81-4.98-2.66-7.49C49.86,59.53,49.04,57.01,48.31,54.45z"/>
	<path d="M30.52,31.27c0.98-0.42,1.96-0.62,2.94-0.78c0.98-0.15,1.96-0.21,2.94-0.22c0.98,0,1.96,0.07,2.94,0.21
		c0.98,0.16,1.96,0.37,2.94,0.79c-0.98,0.42-1.96,0.63-2.94,0.79c-0.98,0.15-1.96,0.21-2.94,0.21c-0.98,0-1.96-0.07-2.94-0.22
		C32.48,31.89,31.5,31.68,30.52,31.27z"/>
</g>
</svg>
